<svg xmlns="http://www.w3.org/2000/svg" width="100.251" height="98.247" viewBox="0 0 100.251 98.247">
  <g id="_584093" data-name="584093" transform="translate(0 -5.115)">
    <g id="Сгруппировать_5" data-name="Сгруппировать 5" transform="translate(74.645 57.1)">
      <g id="Сгруппировать_4" data-name="Сгруппировать 4">
        <path id="Контур_1" data-name="Контур 1" d="M389.31,270.613a1.459,1.459,0,0,0-1.459,1.459,1.852,1.852,0,1,1-3.7,0,1.459,1.459,0,0,0-2.918,0,4.77,4.77,0,1,0,9.541,0A1.459,1.459,0,0,0,389.31,270.613Z" transform="translate(-381.228 -270.613)" fill="#fed46a"/>
      </g>
    </g>
    <g id="Сгруппировать_7" data-name="Сгруппировать 7" transform="translate(0 5.115)">
      <g id="Сгруппировать_6" data-name="Сгруппировать 6">
        <path id="Контур_2" data-name="Контур 2" d="M96.422,57.338l-4.106-1.315A1.718,1.718,0,0,1,91.207,54.9a26.476,26.476,0,0,0-3.882-7.678,28.176,28.176,0,0,0-2.593-3.059,36.188,36.188,0,0,0,.892-8.264c-.061-3.717-.8-5.9-2.271-6.666-.79-.414-3.195-1.673-16.209,4.285a4.735,4.735,0,0,0-.863.514c-.877-.236-1.774-.454-2.676-.65-.109-.024-.221-.045-.33-.068a19.875,19.875,0,0,0,1.786-7.389,1.459,1.459,0,0,0-2.915-.131A16.975,16.975,0,0,1,51.04,40.972a42.309,42.309,0,0,0-11.743,0A16.989,16.989,0,1,1,60.354,17.386a1.459,1.459,0,0,0,2.606-1.312A19.915,19.915,0,1,0,34.6,41.909h0q-1.361.354-2.7.8a1.459,1.459,0,0,0,.925,2.768,39.154,39.154,0,0,1,24.677,0,1.459,1.459,0,0,0,.925-2.768q-1.335-.446-2.7-.8h0a19.894,19.894,0,0,0,6.056-5.921c.4.078.8.16,1.195.245q.786.171,1.563.364c-.016.063-.033.127-.046.191a17.4,17.4,0,0,0,.137,8.876A10.563,10.563,0,0,0,68.509,51.1a12.273,12.273,0,0,0,7.181,2.279,9.627,9.627,0,0,0,4.654-1.076c1.371-.777,2.52-2.413,3.43-4.871q.631.736,1.194,1.508a23.558,23.558,0,0,1,3.455,6.833,4.64,4.64,0,0,0,3,3.027l4.106,1.315a2.584,2.584,0,0,1,1.8,2.468v6.809a2.584,2.584,0,0,1-1.8,2.468l-6.616,2.119a4.508,4.508,0,0,0-2.522,2.048A29.079,29.079,0,0,1,74.247,87.08a2.286,2.286,0,0,0-1.2,1.611l-2.119,11.22a.656.656,0,0,1-.644.533h-6.89a.656.656,0,0,1-.644-.533l-1.174-6.2a2.293,2.293,0,0,0-2.607-1.844,60.989,60.989,0,0,1-9.089.676,58.167,58.167,0,0,1-6.687-.378,2.311,2.311,0,0,0-2.528,1.855l-1.115,5.892a.656.656,0,0,1-.644.533h-6.89a.657.657,0,0,1-.645-.538l-2.04-10.6a2.29,2.29,0,0,0-1.177-1.593c-9.309-4.97-14.23-13.272-14.23-24.01a28.047,28.047,0,0,1,3.528-14.259,25.455,25.455,0,0,1,9.483-9.258,1.459,1.459,0,0,0-1.461-2.526A27.77,27.77,0,0,0,11.383,58.407h0c-.14-.013-.281-.025-.421-.039a7.264,7.264,0,0,0-.535-2.911A5.976,5.976,0,0,0,6,51.588a4.032,4.032,0,0,0-3.8,1.691c-1.392,1.839-1.165,3.295-.73,4.192.735,1.514,2.624,2.585,5.758,3.259q-.129.194-.285.389A7.159,7.159,0,0,1,1.494,64,1.532,1.532,0,0,0,0,65.527v.007a1.528,1.528,0,0,0,1.464,1.524q.157.007.328.007c1.793,0,4.67-.661,7.434-4.128a8.321,8.321,0,0,0,1.065-1.721q.413.047.793.081v0c-.05.791-.077,1.593-.077,2.409a30.067,30.067,0,0,0,4.3,16.1A29.5,29.5,0,0,0,26.523,90.151l1.983,10.3a3.576,3.576,0,0,0,3.511,2.909h6.89a3.576,3.576,0,0,0,3.511-2.909l1.008-5.327a61.488,61.488,0,0,0,6.455.334,64.1,64.1,0,0,0,8.939-.623l1.063,5.617a3.576,3.576,0,0,0,3.511,2.909h6.89a3.577,3.577,0,0,0,3.511-2.909l2.063-10.924A31.81,31.81,0,0,0,88.919,77.492a1.6,1.6,0,0,1,.887-.731l6.616-2.119a5.493,5.493,0,0,0,3.829-5.248V62.586A5.492,5.492,0,0,0,96.422,57.338ZM82.487,40c-.562,4.8-2.068,8.91-3.581,9.767-1.72.975-5.692,1.163-8.674-1.019s-3.979-6.111-2.874-11.358h0a1.76,1.76,0,0,1,1-1.219c7.3-3.344,11.515-4.437,13.08-4.437a1.526,1.526,0,0,1,.529.071C82.438,32.305,83.054,35.152,82.487,40ZM4.1,56.2c-.151-.311.205-.859.431-1.157a1.164,1.164,0,0,1,.937-.57,1.1,1.1,0,0,1,.147.01A3.18,3.18,0,0,1,7.72,56.546a4.43,4.43,0,0,1,.305,1.376C6.006,57.5,4.437,56.9,4.1,56.2Z" transform="translate(0 -5.115)" fill="#fed46a"/>
      </g>
    </g>
    <g id="Сгруппировать_9" data-name="Сгруппировать 9" transform="translate(39.718 14.483)">
      <g id="Сгруппировать_8" data-name="Сгруппировать 8">
        <path id="Контур_3" data-name="Контур 3" d="M209.712,61.832V56.611c1.8.129,2.469.952,3.086.952.772,0,1.132-.977,1.132-1.466,0-1.26-2.469-1.8-4.218-1.852v-.695c0-.309-.386-.592-.772-.592a.679.679,0,0,0-.746.592V54.3c-2.443.257-4.887,1.543-4.887,4.784,0,3.292,2.572,4.218,4.887,5.041v6.044c-2.624-.206-3.318-2.006-4.167-2.006-.643,0-1.183.849-1.183,1.466,0,1.26,2.16,2.983,5.35,3.035h0v.8a.679.679,0,0,0,.746.592c.386,0,.772-.283.772-.592v-.874a4.983,4.983,0,0,0,4.681-5.3C214.393,63.787,211.95,62.655,209.712,61.832Zm-1.363-.489c-1.363-.514-2.469-1.054-2.469-2.52,0-1.338,1.029-1.981,2.469-2.16Zm1.209,8.77V64.687c1.26.54,2.263,1.26,2.263,2.88A2.446,2.446,0,0,1,209.558,70.114Z" transform="translate(-202.845 -52.959)" fill="#fed46a"/>
      </g>
    </g>
  </g>
</svg>
