<svg xmlns="http://www.w3.org/2000/svg" width="98" height="98" viewBox="0 0 98 98">
  <g id="_618933-1" data-name="618933-1" transform="translate(0 -0.001)">
    <g id="Сгруппировать_11" data-name="Сгруппировать 11" transform="translate(0 0.001)">
      <g id="Сгруппировать_10" data-name="Сгруппировать 10" transform="translate(0 0)">
        <path id="Контур_8" data-name="Контур 8" d="M97.972,1.444A1.455,1.455,0,0,0,96.557.029a76.591,76.591,0,0,0-35.61,7.706,1.456,1.456,0,0,0-.655,1.973h0a1.452,1.452,0,0,0,1.93.642q3.018-1.474,6.16-2.662a69.528,69.528,0,0,0,9.758,12.17,69.423,69.423,0,0,0,12.172,9.758c-.074.2-.145.392-.221.587A72.861,72.861,0,0,1,73.6,55.429,73.2,73.2,0,0,1,38.981,74.87L23.131,59.02A73.614,73.614,0,0,1,56.163,13.68a1.455,1.455,0,0,0-1.52-2.481A76.8,76.8,0,0,0,33.287,30.7,23,23,0,0,0,5.918,66.673a1.456,1.456,0,0,0,1.758.313,1.5,1.5,0,0,0,.773-1.169,7,7,0,0,1,3.365-5.138c2.266-1.338,5.208-1.371,8.54-.107a23.975,23.975,0,0,0-9.919,13.965,1.489,1.489,0,0,0,.2,1.175,1.456,1.456,0,0,0,1.633.583l2.062-.626A38.019,38.019,0,0,0,10.42,85.852a1.487,1.487,0,0,0,.126.969,1.457,1.457,0,0,0,1.575.766A38.135,38.135,0,0,0,22.334,83.67l-.614,2.021a1.508,1.508,0,0,0,.132,1.22,1.455,1.455,0,0,0,1.58.665,23.966,23.966,0,0,0,14-9.927c1.264,3.332,1.23,6.274-.107,8.54a7,7,0,0,1-5.145,3.365,1.486,1.486,0,0,0-1.1.672,1.457,1.457,0,0,0,.256,1.858,22.981,22.981,0,0,0,31.657-.828,23.262,23.262,0,0,0,1.572-1.739,1.458,1.458,0,0,0-.281-2.114h0a1.458,1.458,0,0,0-1.974.276,20.324,20.324,0,0,1-1.374,1.52,20.079,20.079,0,0,1-25.484,2.427,9.9,9.9,0,0,0,4.383-3.958c1.2-2.032,2.2-5.383.635-10.168A75.931,75.931,0,0,0,64.9,66.431a20.07,20.07,0,0,1,.468,16.053,1.457,1.457,0,0,0,.713,1.859h0a1.451,1.451,0,0,0,1.978-.754A22.976,22.976,0,0,0,67.3,64.712a76.673,76.673,0,0,0,8.352-7.226A75.752,75.752,0,0,0,92.805,31.259,76.064,76.064,0,0,0,97.972,1.444ZM10.333,58.174a9.9,9.9,0,0,0-3.958,4.383A20.1,20.1,0,0,1,31.569,33.1,75.926,75.926,0,0,0,20.5,57.539C15.716,55.974,12.365,56.974,10.333,58.174ZM25.287,83.958l.916-3.014A1.455,1.455,0,0,0,24,79.309a44.89,44.89,0,0,1-10.163,4.848A44.7,44.7,0,0,1,18.691,74a1.455,1.455,0,0,0-1.633-2.2l-3.014.916a22.218,22.218,0,0,1,8.529-10.137L35.424,75.428A22.217,22.217,0,0,1,25.287,83.958ZM91.319,26.809A66.794,66.794,0,0,1,80.2,17.8,66.865,66.865,0,0,1,71.194,6.687,73.936,73.936,0,0,1,95.088,2.913,73.089,73.089,0,0,1,91.319,26.809Z" transform="translate(0 -0.001)" fill="#fed46a"/>
      </g>
    </g>
    <g id="Сгруппировать_13" data-name="Сгруппировать 13" transform="translate(48.284 19.468)">
      <g id="Сгруппировать_12" data-name="Сгруппировать 12">
        <path id="Контур_9" data-name="Контур 9" d="M275.817,105.228a15.127,15.127,0,1,0,0,21.394A15.028,15.028,0,0,0,275.817,105.228ZM273.8,124.6a12.275,12.275,0,1,1,0-17.359A12.194,12.194,0,0,1,273.8,124.6Z" transform="translate(-250 -100.797)" fill="#fed46a"/>
      </g>
    </g>
    <g id="Сгруппировать_15" data-name="Сгруппировать 15" transform="translate(52.708 23.997)">
      <g id="Сгруппировать_14" data-name="Сгруппировать 14">
        <path id="Контур_10" data-name="Контур 10" d="M292.018,127.786a10.647,10.647,0,1,0,0,15.065A10.664,10.664,0,0,0,292.018,127.786ZM290,140.834a7.8,7.8,0,1,1,0-11.031A7.809,7.809,0,0,1,290,140.834Z" transform="translate(-273.838 -124.671)" fill="#fed46a"/>
      </g>
    </g>
  </g>
</svg>
