<svg xmlns="http://www.w3.org/2000/svg" width="98.017" height="98" viewBox="0 0 98.017 98">
  <g id="contract" transform="translate(0 -0.039)">
    <path id="Контур_11" data-name="Контур 11" d="M250.982,99.667a4.927,4.927,0,0,0-9.027-1.182l-.821,1.428a1.641,1.641,0,0,0-2.232.591l-4.169,7.106-1.428-.821a1.64,1.64,0,1,0-1.641,2.839l1.428.821-13.951,24.176-3.447,9.208-1.641,3.069a4.924,4.924,0,0,0,.263,5.318l-3.693,4.529-1.034-2.593a3.283,3.283,0,0,0-5.86-.46l-.591,1-.558-6.565a3.283,3.283,0,0,0-6.385-.771l-4.037,12.112a1.641,1.641,0,0,0,1.034,2.068,1.421,1.421,0,0,0,.509.131,1.641,1.641,0,0,0,1.56-1.116l4.021-12.112.575,6.663a3.283,3.283,0,0,0,6.089,1.412l.607-1,1.018,2.577a3.282,3.282,0,0,0,5.613.837l3.824-4.841a5.055,5.055,0,0,0,1.3.164,4.924,4.924,0,0,0,4.283-2.43l1.641-2.741,6.253-7.6,14.1-24.471,1.428.821a1.646,1.646,0,0,1,.607,2.249l-6.565,11.374a1.629,1.629,0,1,0,2.774,1.707l6.565-11.374a4.922,4.922,0,0,0-1.806-6.729l-1.428-.821,4.1-7.107a1.642,1.642,0,0,0-.591-2.232l.821-1.428a4.922,4.922,0,0,0,.492-3.807Zm-6.188.459a1.641,1.641,0,0,1,1-.771,1.723,1.723,0,0,1,1.247.164,1.643,1.643,0,0,1,.772,1,1.723,1.723,0,0,1-.164,1.247l-.821,1.428-2.856-1.641Zm-22.37,45.825-.821-.476-2.429-1.412,2.33-6.236,5.17,2.987Zm-4.924,4.743a1.64,1.64,0,0,1-.492-2.15l.821-1.427,2.855,1.641-.821,1.411a1.641,1.641,0,0,1-2.363.525Zm11.046-12.572-5.679-3.283L236,112.091l5.679,3.283Zm14.771-25.588-5.679-3.283,3.283-5.679,5.679,3.283Zm0,0" transform="translate(-153.146 -76.765)" fill="#fed46a"/>
    <path id="Контур_12" data-name="Контур 12" d="M79.4,356.991l-5.809,5.794-3.48-3.48a1.642,1.642,0,1,0-2.314,2.33l3.48,3.48a3.309,3.309,0,0,0,4.645,0l5.793-5.81a1.641,1.641,0,0,0-2.314-2.314Zm0,0" transform="translate(-53.503 -283.798)" fill="#fed46a"/>
    <path id="Контур_13" data-name="Контур 13" d="M32,325.991a13.951,13.951,0,0,0,27.9,0,1.641,1.641,0,1,0-3.283,0,10.669,10.669,0,1,1-4.267-8.534,1.641,1.641,0,0,0,1.97-2.626A13.951,13.951,0,0,0,32,325.991Zm0,0" transform="translate(-25.435 -248.468)" fill="#fed46a"/>
    <path id="Контур_14" data-name="Контур 14" d="M116.314,51.322a1.641,1.641,0,1,0,0-3.283H73.641A1.641,1.641,0,0,0,72,49.68v6.565a1.641,1.641,0,0,0,1.641,1.641h42.673a1.641,1.641,0,1,0,0-3.283H75.283V51.322Zm0,0" transform="translate(-57.224 -38.153)" fill="#fed46a"/>
    <path id="Контур_15" data-name="Контур 15" d="M97.641,112.039a1.641,1.641,0,1,0,0,3.283h32.825a1.641,1.641,0,0,0,0-3.283Zm0,0" transform="translate(-76.455 -89.137)" fill="#fed46a"/>
    <path id="Контур_16" data-name="Контур 16" d="M165.749,168.039H129.641a1.641,1.641,0,0,0,0,3.283h36.108a1.641,1.641,0,0,0,0-3.283Zm0,0" transform="translate(-101.951 -133.706)" fill="#fed46a"/>
    <path id="Контур_17" data-name="Контур 17" d="M92.108,217.68a1.641,1.641,0,0,0-1.641-1.641H57.641a1.641,1.641,0,1,0,0,3.283H90.467A1.641,1.641,0,0,0,92.108,217.68Zm0,0" transform="translate(-44.511 -171.907)" fill="#fed46a"/>
    <path id="Контур_18" data-name="Контур 18" d="M261.13,216.039H249.641a1.641,1.641,0,0,0,0,3.283H261.13a1.641,1.641,0,1,0,0-3.283Zm0,0" transform="translate(-197.41 -171.907)" fill="#fed46a"/>
    <path id="Контур_19" data-name="Контур 19" d="M74.054,259.322a1.641,1.641,0,0,0,0-3.283H57.641a1.641,1.641,0,0,0,0,3.283Zm0,0" transform="translate(-44.511 -203.742)" fill="#fed46a"/>
    <path id="Контур_20" data-name="Контур 20" d="M169.641,259.322H181.13a1.641,1.641,0,1,0,0-3.283H169.641a1.641,1.641,0,0,0,0,3.283Zm0,0" transform="translate(-133.729 -203.742)" fill="#fed46a"/>
    <path id="Контур_21" data-name="Контур 21" d="M73.391,75.172a1.632,1.632,0,0,0-1.631,1.633V93.139a1.632,1.632,0,0,1-1.631,1.633H4.893a1.632,1.632,0,0,1-1.631-1.633V4.939A1.632,1.632,0,0,1,4.893,3.306H70.13A1.632,1.632,0,0,1,71.76,4.939V35.613a1.631,1.631,0,1,0,3.262,0V4.939A4.9,4.9,0,0,0,70.13.039H4.893A4.9,4.9,0,0,0,0,4.939v88.2a4.9,4.9,0,0,0,4.893,4.9H70.13a4.9,4.9,0,0,0,4.893-4.9V76.806A1.632,1.632,0,0,0,73.391,75.172Zm0,0" fill="#fed46a"/>
  </g>
</svg>
