<svg xmlns="http://www.w3.org/2000/svg" width="71.702" height="96.61" viewBox="0 0 71.702 96.61">
  <g id="Сгруппировать_24" data-name="Сгруппировать 24" transform="translate(-355.298 -6064.39)">
    <path id="Контур_4" data-name="Контур 4" d="M40.5,68.3A28.3,28.3,0,1,0,68.8,40,28.336,28.336,0,0,0,40.5,68.3Zm28.3-24.53A24.53,24.53,0,1,1,44.274,68.3,24.557,24.557,0,0,1,68.8,43.774Zm0,0" transform="translate(322.345 6031.938)" fill="#e8b86c"/>
    <path id="Контур_5" data-name="Контур 5" d="M95.471,107.825l7.314,7.206L101.1,125.16a1.887,1.887,0,0,0,2.731,1.984l9.112-4.732,9.112,4.732a1.887,1.887,0,0,0,2.731-1.984l-1.683-10.128,7.314-7.206a1.887,1.887,0,0,0-1.044-3.21l-10.15-1.528L114.633,93.9a1.887,1.887,0,0,0-3.375,0l-4.593,9.185-10.15,1.528a1.887,1.887,0,0,0-1.044,3.21Zm12.725-1.152a1.888,1.888,0,0,0,1.407-1.022l3.343-6.686,3.343,6.686a1.888,1.888,0,0,0,1.407,1.022l7.388,1.112-5.324,5.244a1.89,1.89,0,0,0-.537,1.654l1.225,7.372-6.632-3.444a1.886,1.886,0,0,0-1.739,0l-6.632,3.444,1.225-7.372a1.886,1.886,0,0,0-.537-1.654l-5.323-5.244Zm0,0" transform="translate(278.203 5989.052)" fill="#e8b86c"/>
    <path id="Контур_6" data-name="Контур 6" d="M184.274,1.887A1.887,1.887,0,1,1,182.387,0,1.887,1.887,0,0,1,184.274,1.887Zm0,0" transform="translate(208.762 6064.39)" fill="#e8b86c"/>
    <path id="Контур_7" data-name="Контур 7" d="M27.459,5.64A35.854,35.854,0,0,0,12.3,66.963L.934,87a1.887,1.887,0,0,0,2.025,2.779L15.869,87.1l4.537,12.786a1.886,1.886,0,0,0,3.418.3L36.351,78.16l12.527,22.024a1.886,1.886,0,0,0,1.639.954c.055,0,.111,0,.167-.007A1.889,1.889,0,0,0,52.3,99.882L56.833,87.1l12.91,2.681A1.887,1.887,0,0,0,71.768,87L60.4,66.963A35.855,35.855,0,0,0,45.244,5.64,1.887,1.887,0,0,0,44.31,9.3a32.077,32.077,0,1,1-15.919,0,1.887,1.887,0,1,0-.933-3.657ZM22.584,94.733l-3.708-10.45a1.887,1.887,0,0,0-2.162-1.217L6.274,85.234l9-15.856A35.928,35.928,0,0,0,33.187,76.09ZM55.989,83.066a1.887,1.887,0,0,0-2.162,1.217l-3.707,10.45L39.515,76.09a35.93,35.93,0,0,0,17.917-6.712l9,15.856Zm0,0" transform="translate(354.798 6059.862)" fill="#fed46a"/>
  </g>
</svg>
